Patient4_TMGait_0pt6_01_left_13_GRF.mot
version=1
nRows=26
nColumns=19
inDegrees=no
endheader
time	F1x	F1y	F1z	M1x	M1y	M1z	F2x	F2y	F2z	M2x	M2y	M2z	EC1x	EC1y	EC1z	EC2x	EC2y	EC2z
15.77	5.7334	-0.046449	-3.3147	1.0162	3.631	1.7294	-37.5112	699.9144	-45.6792	276.4507	55.103	652.7556	-0.0592	0.0182	-0.0073	-0.0462	0.0165	0.9585
15.7824	3.8077	0.63592	-2.3167	0.44503	2.5137	1.8976	-35.6024	698.9969	-46.9221	277.2211	55.9689	649.1694	-0.0592	0.0182	-0.0073	-0.0462	0.0165	0.9585
15.7947	2.181	1.2138	-1.451	-0.044473	1.5379	2.0326	-33.3138	700.4421	-47.7738	278.9199	56.1813	646.7875	-0.0592	0.0182	-0.0073	-0.0462	0.0165	0.9585
15.8071	0.94316	1.6641	-0.77465	-0.42613	0.77223	2.1389	-30.7096	705.0283	-48.1679	281.8283	55.6791	646.3339	-0.0592	0.0182	-0.0073	-0.0462	0.0165	0.9585
15.8194	0.086198	1.9876	-0.29236	-0.69966	0.22306	2.2169	-27.8501	713.0049	-48.2017	286.0538	54.5757	648.1043	-0.0592	0.0182	-0.0073	-0.0462	0.0165	0.9585
15.8318	-0.44637	2.1967	0.01873	-0.87565	-0.13519	2.2588	-24.7467	723.9964	-48.0185	291.466	53.0204	651.8369	-0.0592	0.0182	-0.0073	-0.0462	0.0165	0.9585
15.8441	-0.74738	2.3138	0.19671	-0.97156	-0.34801	2.2604	-21.4011	737.0795	-47.7784	297.708	51.1771	656.8088	-0.0592	0.0182	-0.0073	-0.0462	0.0165	0.9585
15.8565	-0.90093	2.3468	0.28271	-1.0027	-0.46415	2.2061	-17.7909	750.965	-47.5745	304.2661	49.1448	661.9906	-0.0592	0.0182	-0.0073	-0.0462	0.0165	0.9585
15.8689	-0.98983	2.2739	0.31019	-0.97403	-0.52915	2.0753	-13.9355	764.2788	-47.4596	310.5716	46.9962	666.3443	-0.0592	0.0182	-0.0073	-0.0462	0.0165	0.9585
15.8812	-1.0667	2.0489	0.30528	-0.87934	-0.57512	1.8127	-9.9387	775.7516	-47.4194	316.0829	44.7749	668.9668	-0.0592	0.0182	-0.0073	-0.0462	0.0165	0.9585
15.8936	-1.1766	1.6061	0.28361	-0.70011	-0.61919	1.3541	-6.0207	784.3772	-47.4327	320.3476	42.5603	669.2354	-0.0592	0.0182	-0.0073	-0.0462	0.0165	0.9585
15.9059	-1.3224	0.86983	0.25573	-0.4111	-0.662	0.61847	-2.439	789.4543	-47.479	323.0259	40.4526	666.8029	-0.0592	0.0182	-0.0073	-0.0462	0.0165	0.9585
15.9183	-1.4909	-0.22429	0.22522	0.010996	-0.69888	-0.45637	0.56534	790.5598	-47.5754	323.8933	38.5824	661.5482	-0.0592	0.0182	-0.0073	-0.0462	0.0165	0.9585
15.9306	-1.6273	-1.7111	0.19274	0.57647	-0.71343	-1.9195	2.8528	787.5783	-47.7585	322.8664	37.0608	653.5379	-0.0592	0.0182	-0.0073	-0.0462	0.0165	0.9585
15.943	-1.6459	-3.5403	0.15497	1.2642	-0.67245	-3.722	4.4463	780.8025	-48.0602	320.0524	35.9309	643.084	-0.0592	0.0182	-0.0073	-0.0462	0.0165	0.9585
15.9554	-1.4056	-5.5238	0.1075	2.0037	-0.52415	-5.6847	5.5208	770.9874	-48.4858	315.7702	35.1451	630.785	-0.0592	0.0182	-0.0073	-0.0462	0.0165	0.9585
15.9677	-0.73545	-7.2604	0.03771	2.6469	-0.19605	-7.4098	6.3281	759.2545	-49.0419	310.5038	34.6151	617.4751	-0.0592	0.0182	-0.0073	-0.0462	0.0165	0.9585
15.9801	0.57704	-8.0827	-0.064946	2.9495	0.39722	-8.2378	7.1176	746.9009	-49.7535	304.8177	34.2619	604.0949	-0.0592	0.0182	-0.0073	-0.0462	0.0165	0.9585
15.9924	2.7442	-6.9898	-0.21513	2.548	1.3457	-7.1677	8.0912	735.156	-50.6347	299.2556	34.0163	591.5232	-0.0592	0.0182	-0.0073	-0.0462	0.0165	0.9585
16.0048	5.9369	-2.6222	-0.42079	0.94472	2.7158	-2.8397	9.3922	724.9625	-51.6733	294.2441	33.8138	580.428	-0.0592	0.0182	-0.0073	-0.0462	0.0165	0.9585
16.0171	10.2119	6.6973	-0.68354	-2.4758	4.5233	6.4286	11.1221	716.7895	-52.7963	290.0146	33.5576	571.1095	-0.0592	0.0182	-0.0073	-0.0462	0.0165	0.9585
16.0295	15.3976	22.7893	-0.98445	-8.3805	6.6861	22.4776	13.3245	710.5627	-53.8716	286.5754	33.1248	563.464	-0.0592	0.0182	-0.0073	-0.0462	0.0165	0.9585
16.0419	20.9237	47.256	-1.2841	-17.3515	8.9598	46.9357	15.985	705.6258	-54.713	283.6964	32.3775	556.9535	-0.0592	0.0182	-0.0073	-0.0462	0.0165	0.9585
16.0542	25.6392	80.8921	-1.5029	-29.6738	10.8447	80.6332	19.0066	700.8092	-55.1082	280.9341	31.1916	550.662	-0.0592	0.0182	-0.0073	-0.0462	0.0165	0.9585
16.0666	27.7461	122.8963	-1.4924	-45.0505	11.5389	122.816	22.2444	694.5932	-54.831	277.7013	29.452	543.406	-0.0592	0.0182	-0.0073	-0.0462	0.0165	0.9585
16.0789	25.5238	170.5672	-1.0397	-62.4849	10.2122	170.8563	25.5159	685.3419	-53.681	273.3619	27.0872	533.9359	-0.0592	0.0182	-0.0073	-0.0462	0.0165	0.9585
